<svg id="Capa_1" enable-background="new 0 0 512 512" height="512" viewBox="0 0 512 512" width="512" xmlns="http://www.w3.org/2000/svg"><g><path d="m474.5 0h-437c-20.678 0-37.5 16.822-37.5 37.5v437c0 20.678 16.822 37.5 37.5 37.5h437c20.678 0 37.5-16.822 37.5-37.5v-437c0-20.678-16.822-37.5-37.5-37.5zm22.5 474.5c0 12.407-10.094 22.5-22.5 22.5h-437c-12.406 0-22.5-10.093-22.5-22.5v-437c0-12.407 10.094-22.5 22.5-22.5h437c12.406 0 22.5 10.093 22.5 22.5z"/><path d="m414.5 90h-317c-4.143 0-7.5 3.358-7.5 7.5v143.5c0 4.142 3.357 7.5 7.5 7.5s7.5-3.358 7.5-7.5v-136h302v302h-302v-136c0-4.142-3.357-7.5-7.5-7.5s-7.5 3.358-7.5 7.5v143.5c0 4.142 3.357 7.5 7.5 7.5h317c4.143 0 7.5-3.358 7.5-7.5v-317c0-4.142-3.357-7.5-7.5-7.5z"/><path d="m392 256c0-74.991-61.01-136-136-136s-136 61.009-136 136 61.01 136 136 136 136-61.009 136-136zm-143.5 120.761v-37.261c0-4.136 3.364-7.5 7.5-7.5s7.5 3.364 7.5 7.5v37.261c-2.482.152-4.981.239-7.5.239s-5.018-.087-7.5-.239zm15-241.522v37.261c0 4.136-3.364 7.5-7.5 7.5s-7.5-3.364-7.5-7.5v-37.261c2.482-.152 4.981-.239 7.5-.239s5.018.087 7.5.239zm-128.5 120.761c0-59.032 42.495-108.318 98.5-118.894v35.394c0 12.407 10.094 22.5 22.5 22.5s22.5-10.093 22.5-22.5v-35.394c56.005 10.576 98.5 59.862 98.5 118.894s-42.495 108.318-98.5 118.894v-35.394c0-12.407-10.094-22.5-22.5-22.5s-22.5 10.093-22.5 22.5v35.394c-56.005-10.576-98.5-59.862-98.5-118.894z"/><path d="m180 226c-16.542 0-30 13.458-30 30s13.458 30 30 30 30-13.458 30-30-13.458-30-30-30zm0 45c-8.271 0-15-6.729-15-15s6.729-15 15-15 15 6.729 15 15-6.729 15-15 15z"/><path d="m332 286c16.542 0 30-13.458 30-30s-13.458-30-30-30-30 13.458-30 30 13.458 30 30 30zm0-45c8.271 0 15 6.729 15 15s-6.729 15-15 15-15-6.729-15-15 6.729-15 15-15z"/><path d="m256 278.5c12.406 0 22.5-10.093 22.5-22.5s-10.094-22.5-22.5-22.5-22.5 10.093-22.5 22.5 10.094 22.5 22.5 22.5zm0-30c4.136 0 7.5 3.364 7.5 7.5s-3.364 7.5-7.5 7.5-7.5-3.364-7.5-7.5 3.364-7.5 7.5-7.5z"/></g></svg>